<?xml version="1.0" standalone="no"?>
<!DOCTYPE svg PUBLIC "-//W3C//DTD SVG 20010904//EN"
 "http://www.w3.org/TR/2001/REC-SVG-20010904/DTD/svg10.dtd">
<svg version="1.0" xmlns="http://www.w3.org/2000/svg"
 width="225.000000pt" height="225.000000pt" viewBox="0 0 225.000000 225.000000"
 preserveAspectRatio="xMidYMid meet">
<metadata>
Created by potrace 1.14, written by Peter Selinger 2001-2017
</metadata>
<g transform="translate(0.000000,225.000000) scale(0.100000,-0.100000)"
fill="#000000" stroke="none">
<path d="M760 2156 c-30 -7 -73 -19 -95 -26 -22 -8 -42 -14 -46 -15 -3 0 -42
-21 -86 -47 -124 -72 -213 -165 -271 -283 -121 -243 -68 -534 131 -727 39 -39
54 -47 73 -42 23 6 24 4 24 -37 1 -142 92 -336 206 -440 307 -276 781 -255
1053 48 48 53 124 186 136 237 18 81 24 116 25 154 l0 42 -115 1 c-63 1 -120
2 -125 3 -6 0 -19 16 -30 34 -15 24 -27 32 -50 33 -41 2 -47 3 -54 10 -14 13
25 29 144 59 69 17 139 35 156 41 l32 10 -14 46 c-8 25 -13 47 -11 49 1 1 63
5 137 8 74 2 141 5 147 5 14 1 1 46 -22 71 -7 8 -21 31 -32 50 -10 19 -37 63
-58 97 -40 63 -55 70 -90 43 -6 -5 -64 -36 -130 -70 -153 -79 -151 -77 -131
-125 9 -21 16 -41 16 -45 0 -9 -79 -70 -90 -70 -4 0 -12 19 -19 43 -7 23 -20
53 -28 66 -14 22 -13 25 40 80 79 81 109 145 115 244 l5 80 -46 -6 c-107 -15
-207 -87 -279 -200 -16 -26 -33 -45 -37 -42 -17 10 -80 17 -151 16 -72 0 -84
-1 -140 -15 -22 -6 -28 -1 -47 34 -19 36 -20 40 -4 35 12 -3 33 12 70 52 29
32 111 117 182 190 71 72 129 136 129 142 0 27 -149 114 -260 151 -79 26 -275
35 -360 16z m1060 -1377 c0 -28 -68 -134 -117 -184 -31 -31 -57 -55 -59 -53
-2 2 3 24 11 48 8 25 17 56 20 70 5 29 19 44 85 94 49 37 60 42 60 25z"/>
</g>
</svg>
