<?xml version="1.0" standalone="no"?>
<!DOCTYPE svg PUBLIC "-//W3C//DTD SVG 20010904//EN"
 "http://www.w3.org/TR/2001/REC-SVG-20010904/DTD/svg10.dtd">
<svg version="1.0" xmlns="http://www.w3.org/2000/svg"
 width="225.000000pt" height="225.000000pt" viewBox="0 0 225.000000 225.000000"
 preserveAspectRatio="xMidYMid meet">
<metadata>
Created by potrace 1.14, written by Peter Selinger 2001-2017
</metadata>
<g transform="translate(0.000000,225.000000) scale(0.100000,-0.100000)"
fill="#000000" stroke="none">
<path d="M1565 2100 c3 -5 10 -10 16 -10 5 0 9 5 9 10 0 6 -7 10 -16 10 -8 0
-12 -4 -9 -10z"/>
<path d="M94 1888 c20 -243 61 -382 154 -522 46 -69 153 -186 171 -186 26 0
19 -42 -19 -113 -58 -111 -80 -200 -75 -300 7 -146 46 -229 162 -344 72 -72
97 -90 195 -137 93 -44 150 -65 228 -81 78 -16 325 -24 367 -11 10 3 34 8 53
11 59 10 142 36 194 61 28 13 55 24 62 24 17 0 152 105 198 153 96 104 136
206 136 345 0 117 -24 197 -93 317 l-29 49 23 16 c97 62 244 262 264 359 2 9
10 35 19 59 34 94 68 364 47 376 -5 3 -45 -5 -88 -19 -230 -74 -388 -231 -463
-460 -18 -55 -35 -103 -37 -107 -2 -5 -36 10 -76 31 -40 22 -112 51 -161 66
-100 28 -107 32 -86 45 8 6 11 10 6 10 -5 0 -17 -7 -26 -15 -11 -10 -43 -15
-110 -16 -134 -1 -263 -37 -374 -101 -27 -16 -49 -28 -51 -26 -1 2 -10 34 -19
71 -33 135 -132 292 -235 373 -88 69 -203 124 -315 149 l-29 6 7 -83z"/>
<path d="M1371 1833 c-17 -21 -38 -46 -47 -56 -8 -10 -13 -21 -10 -24 7 -7 62
53 82 90 20 37 12 34 -25 -10z"/>
<path d="M1434 1725 c9 -7 13 -15 9 -18 -12 -13 12 -6 31 8 23 17 23 17 -23
19 -27 2 -30 0 -17 -9z"/>
<path d="M1365 1635 c-28 -25 -45 -45 -40 -45 14 1 101 77 95 84 -3 3 -28 -15
-55 -39z"/>
<path d="M1289 1563 c-13 -16 -12 -17 4 -4 9 7 17 15 17 17 0 8 -8 3 -21 -13z"/>
</g>
</svg>
